<?xml version="1.0" encoding="utf-8"?>
<!-- Generator: Adobe Illustrator 30.0.0, SVG Export Plug-In . SVG Version: 9.03 Build 0)  -->
<svg version="1.0" id="Layer_1" xmlns="http://www.w3.org/2000/svg" xmlns:xlink="http://www.w3.org/1999/xlink" x="0px" y="0px"
	 viewBox="0 0 1080 1080" style="enable-background:new 0 0 1080 1080;" xml:space="preserve">
<style type="text/css">
	.st0{fill:#0D3C53;}
	.st1{fill:#FFFFFF;}
	.st2{fill:url(#SVGID_1_);}
	.st3{fill:url(#SVGID_00000157271764223503099260000018344032814821744825_);}
</style>
<circle class="st0" cx="518.36" cy="632.4" r="75.97"/>
<g>
	<path class="st1" d="M566.02,612.88c0,6.29,0,12.58,0,18.87c0,4.43,0,8.87,0,13.3c0,4.6,0.3,8.86-2.57,12.84
		c-0.08,0.12-0.17,0.23-0.26,0.35c-1.36,1.78-3.07,3.26-4.93,4.51c-0.95,0.64-2.87,1.82-4.05,1.82c0,0-21.11,0-21.32,0
		c-6.46,0-12.84-7.6-13.49-13.7c-0.38-3.55,0-7.34,0-10.9c0-1.72,0-24.58,0-24.58c0,0-9.17,0-9.17,0v48.85c0,0-3.04,0-3.04,0
		c-3.12-0.72-6.03-2.34-8.25-4.66c-2.33-2.44-3.29-5.27-4.24-8.43l0.38-25.22l0.16-10.54h-24.56c0,0,0-1.7,0-1.7
		c0.41-3.38,1.96-6.57,4.32-9.02c2.38-2.46,5.03-3.49,8.22-4.42h51.45c0,0-0.13,42.5-0.13,42.75c-0.01,2.43,2.92,4.85,4.95,5.65
		c4.69,1.87,9.09-0.86,11.23-5.02l0.25-0.5l-0.03-42.88h0.98c0,0,2.15,0.31,2.16,0.31c4.87,0.7,9.89,5.4,11.2,10.02
		C565.28,610.56,566.02,612.88,566.02,612.88z"/>
	<linearGradient id="SVGID_1_" gradientUnits="userSpaceOnUse" x1="494.7039" y1="639.616" x2="510.2264" y2="639.616">
		<stop  offset="0.081" style="stop-color:#B1B6BB"/>
		<stop  offset="0.4916" style="stop-color:#E1E5E5"/>
		<stop  offset="1" style="stop-color:#F4F4F4"/>
	</linearGradient>
	<path class="st2" d="M510.23,615.59c0,0,0,48.63,0,48.64c0,0.2-3.96-0.44-4.35-0.54c-1.49-0.38-2.92-0.98-4.22-1.8
		c-2.69-1.68-4.16-4.06-5.73-6.71l-1.21-4.04c0,0,0.38-25.19,0.38-25.22c0.06-3.76,10.75-12.79,14.62-10.63
		C509.7,615.29,510.23,615.59,510.23,615.59z"/>
	
		<linearGradient id="SVGID_00000096755491477971574320000010119488163664791441_" gradientUnits="userSpaceOnUse" x1="538.5126" y1="632.3967" x2="566.0217" y2="632.3967">
		<stop  offset="0.081" style="stop-color:#B1B6BB"/>
		<stop  offset="0.4916" style="stop-color:#E1E5E5"/>
		<stop  offset="1" style="stop-color:#F4F4F4"/>
	</linearGradient>
	<path style="fill:url(#SVGID_00000096755491477971574320000010119488163664791441_);" d="M566.02,612.88c0,8.69,0,17.38,0,26.06
		c0,2.19-0.05,4.38-0.05,6.56c-0.01,3.83,0.44,7.32-1.37,10.84c-2.26,4.38-5.95,6.54-10.38,8.21c0,0-15.69,0-15.7,0
		c1.22,0,3.62-1.79,4.68-2.41c1.6-0.92,3.14-2,4.34-3.43c3.7-4.42,3.11-10.27,3.44-15.63c0.1-1.58,0-3.2,0-4.79
		c-0.01-7.69-0.01-15.37-0.02-23.06c0-5.01-0.01-10.01-0.01-15.02c0,0,0.98,0,0.98,0l2.16,0.31l2.43,0.78l2.87,1.41l2.29,1.93
		l1.62,1.86l1.48,2.26l0.51,1.79L566.02,612.88z"/>
</g>
</svg>
