<?xml version="1.0" encoding="utf-8"?>
<!-- Generator: Adobe Illustrator 30.0.0, SVG Export Plug-In . SVG Version: 9.03 Build 0)  -->
<svg version="1.0" id="Layer_1" xmlns="http://www.w3.org/2000/svg" xmlns:xlink="http://www.w3.org/1999/xlink" x="0px" y="0px"
	 viewBox="0 0 1080 1080" style="enable-background:new 0 0 1080 1080;" xml:space="preserve">
<style type="text/css">
	.st0{fill:#FFFFFF;}
	.st1{fill:#0D3C53;}
	.st2{fill:url(#SVGID_1_);}
	.st3{fill:url(#SVGID_00000109014422537473481550000001116388177789008033_);}
</style>
<path class="st0" d="M805.24,435.79H269.21c-17.77,0-32.17-14.4-32.17-32.17v-89.86c0-17.77,14.4-32.17,32.17-32.17h536.03
	c17.77,0,32.17,14.4,32.17,32.17v89.86C837.41,421.39,823.01,435.79,805.24,435.79z"/>
<g>
	<g>
		<path class="st1" d="M401.84,328.32c0,8.72,0,17.43,0,26.15c0,6.14,0,12.29,0,18.43c0,6.38,0.42,12.27-3.56,17.79
			c-0.12,0.16-0.24,0.32-0.36,0.48c-1.88,2.47-4.25,4.52-6.82,6.24c-1.31,0.88-3.97,2.52-5.61,2.52c0,0-29.25,0-29.54,0
			c-8.95,0-17.79-10.52-18.7-18.99c-0.52-4.91,0-10.17,0-15.1c0-2.38,0-34.05,0-34.05c0,0-12.71,0-12.71,0v67.68c0,0-4.21,0-4.21,0
			c-4.33-0.99-8.36-3.25-11.43-6.46c-3.23-3.38-4.56-7.3-5.87-11.67l0.53-34.94l0.22-14.61h-34.03c0,0,0-2.36,0-2.36
			c0.57-4.69,2.71-9.11,5.99-12.5c3.29-3.41,6.97-4.84,11.4-6.13h71.29c0,0-0.19,58.88-0.19,59.22c-0.01,3.36,4.05,6.72,6.85,7.83
			c6.5,2.59,12.6-1.19,15.55-6.95l0.35-0.69l-0.04-59.41h1.35c0,0,2.99,0.43,2.99,0.43c6.74,0.97,13.71,7.48,15.52,13.88
			C400.81,325.1,401.84,328.32,401.84,328.32z"/>
		<linearGradient id="SVGID_1_" gradientUnits="userSpaceOnUse" x1="303.027" y1="365.3604" x2="324.5334" y2="365.3604">
			<stop  offset="0.081" style="stop-color:#0F2D38"/>
			<stop  offset="0.9911" style="stop-color:#0E3C53"/>
		</linearGradient>
		<path class="st2" d="M324.53,332.07c0,0,0,67.37,0,67.4c0,0.28-5.49-0.6-6.03-0.74c-2.06-0.53-4.05-1.36-5.85-2.49
			c-3.72-2.33-5.77-5.62-7.94-9.3l-1.68-5.6c0,0,0.53-34.9,0.53-34.94c0.09-5.21,14.9-17.73,20.25-14.72
			C323.81,331.66,324.53,332.07,324.53,332.07z"/>
		
			<linearGradient id="SVGID_00000170274027539081654450000003866043083589104521_" gradientUnits="userSpaceOnUse" x1="363.7239" y1="355.3581" x2="401.8376" y2="355.3581">
			<stop  offset="0.081" style="stop-color:#0F2D38"/>
			<stop  offset="0.9911" style="stop-color:#0E3C53"/>
		</linearGradient>
		<path style="fill:url(#SVGID_00000170274027539081654450000003866043083589104521_);" d="M401.84,328.32c0,12.04,0,24.08,0,36.11
			c0,3.03-0.06,6.06-0.08,9.1c-0.02,5.3,0.61,10.14-1.9,15.02c-3.13,6.08-8.24,9.07-14.38,11.38c0,0-21.74,0-21.76,0
			c1.68,0.01,5.01-2.48,6.49-3.34c2.22-1.28,4.36-2.77,6.01-4.75c5.12-6.13,4.31-14.23,4.77-21.65c0.14-2.19,0-4.44,0-6.63
			c-0.01-10.65-0.02-21.3-0.02-31.94c-0.01-6.94-0.01-13.87-0.02-20.81c0,0,1.35,0,1.35,0l2.99,0.43l3.37,1.08l3.98,1.96l3.17,2.67
			l2.24,2.57l2.05,3.13l0.7,2.48L401.84,328.32z"/>
	</g>
	<path class="st1" d="M471.18,321.42c0.07,0-1.01,2.13-1.13,2.32c-0.77,1.22-1.51,2.52-2.52,3.58c-1.42,1.48-3.1,1.88-5.08,2
		c-1.27,0.08-2.55,0.4-3.81,0.41c-0.03,0.28,0,0.5-0.01,0.92c-0.03,6.97,0.05,33.66-0.05,34.34c-5.56,0.08-10.1-4.41-10.1-9.96
		c0-8.37,0-19.59,0-23.7c-0.07-1.15,0.15-1.67-0.13-1.59c-2.61-0.01-11.42,0.02-11.61-0.02c0-0.01,0-0.03,0-0.04
		c-0.08-4.53,3.58-8.25,8.11-8.25c9.95,0,25.52,0.01,25.52,0C470.38,321.42,471.18,321.42,471.18,321.42z"/>
	<path class="st1" d="M496.08,362.29c-0.37-0.44-0.71-0.93-1.02-1.42c-2.73-4.16-5.46-8.32-8.17-12.5
		c-0.18-0.27-0.35-0.54-0.61-0.74c-0.41-0.32-1.64-0.62-2.09-0.26c-0.34,0.27-0.16,0.21-0.28,0.59c-0.16,0.48,0,1.32,0,1.83
		c0,1.9,0,3.8,0,5.7c0,0.52,0,8.27,0,8.27h-9.52v-42.36c2.97,0,5.94,0,8.92,0c3.99,0,8.29-0.42,12.18,0.61
		c3.06,0.8,5.98,2.49,7.89,5.16c2.22,3.11,2.74,7.28,1.54,10.93c-1.22,3.72-4.36,6.34-7.94,7.39c4.1,6.1,8.2,12.19,12.3,18.29
		c-3.06,0-6.13,0-9.19-0.01c-0.89,0-1.82-0.01-2.63-0.39C496.91,363.14,496.47,362.75,496.08,362.29z M483.91,328.7v11.59
		c0,0,4.74,0,4.76,0c1.84,0,4.26-0.11,5.45-1.83c1.42-2.05,0.61-5.61-0.82-7.41c-1.22-1.54-3-2.35-4.89-2.35H483.91z"/>
	<path class="st1" d="M542.56,361.65l-2.38-6.89H523.8l-2.21,6.4c-0.54,1.57-2.02,2.63-3.68,2.63h-7.63l16.78-42.45h9.88
		l16.78,42.45h-8.16C544.2,363.78,543,362.93,542.56,361.65z M526.45,347.09l11.48,0.06l-5.99-15.93L526.45,347.09z"/>
	<path class="st1" d="M584.09,321.33h4.51c1.02,0,1.71,1.03,1.32,1.98l-16.42,39.59c-0.22,0.53-0.74,0.88-1.32,0.88h-3.34
		c-2.47,0-4.69-1.49-5.63-3.76l-15.17-36.7c-0.39-0.94,0.31-1.97,1.32-1.97h4.88c2.17,0,4.1,1.36,4.83,3.39l8.53,23.55
		c0.46,1.26,2.23,1.26,2.69,0l8.45-23.2C579.57,322.82,581.7,321.33,584.09,321.33z"/>
	<path class="st1" d="M600.48,321.8v24.63c0,9.31,4.53,13.27,10.63,13.27c6.77,0,11.11-4.07,11.11-13.27V321.8h5.96v24.25
		c0,12.77-7.38,18.02-17.27,18.02c-9.35,0-16.39-4.87-16.39-17.77v-18.54C594.52,324.47,597.19,321.8,600.48,321.8L600.48,321.8z"/>
	<path class="st1" d="M637.09,364.07V321.8h6.57l14.94,21.39c3.45,4.96,5.49,6.66,7.71,10.98l0.17,0.35
		c-0.56-5.65-0.06-8.44-0.06-15.03V321.8h5.67v42.27h-6.09l-14.8-21.44c-3.25-4.7-6.34-6.68-8.69-11.25l0.02,2.03
		c0.34,5.34,0.22,5.58,0.22,12.6v18.06L637.09,364.07L637.09,364.07z"/>
	<path class="st1" d="M688.31,321.8v37.4c0,3.26-2.64,5.9-5.9,5.9l0,0v-37.4C682.42,324.44,685.05,321.8,688.31,321.8L688.31,321.8z
		"/>
	<path class="st1" d="M708.49,326.99h-13.51l0,0c0-2.87,2.33-5.2,5.2-5.2h26.06h1.65c0,2.63-1.19,5.07-3.82,5.07l-9.77,0.31v37.92
		l0,0c-3.2,0-5.8-2.6-5.8-5.8L708.49,326.99L708.49,326.99z"/>
	<path class="st1" d="M755.48,345.16l-15.66,0.09v13.98l19.97,0.05l0,0c0,2.44-1.96,4.43-4.4,4.46l-21.98,0.31v-42.25h21.24
		c2.84,0,5.15,2.3,5.15,5.15l0,0l-19.97-0.21l0.05,13.88l11.12,0.04C753.47,340.65,755.48,342.67,755.48,345.16L755.48,345.16z"/>
	<path class="st1" d="M767.27,322.05c3.58-0.5,8.26-0.07,12.93-0.07c8.46,0,14.08,0.49,18.07,3.98c4.06,3.47,6.43,8.41,6.43,15.3
		c0,6.96-2.3,12.64-6.56,16.55c-4.26,3.99-11.3,6.14-20.18,6.14c-4.2,0-7.72-0.19-10.7-0.51V322.05z M773.16,359.2
		c1.66-0.1,3.85,0.23,6.15,0.09c12.77-0.8,19.27-6.31,18.04-17.75c-1.06-9.87-4.85-14.89-17.34-14.55
		c-3.04,0.08-5.31-0.07-6.86,0.23V359.2z"/>
	<path class="st1" d="M444.68,383.31h2.75v13.78h9.11v1.68h-11.85V383.31z"/>
	<path class="st1" d="M468.7,383.31v15.46h-2.75v-15.46H468.7z"/>
	<path class="st1" d="M484.51,398.76l-6.96-15.46h2.97l3.32,7.62c0.91,2.09,1.7,3.97,2.28,5.78h0.07c0.6-1.79,1.49-3.73,2.43-5.75
		l3.6-7.63h2.94l-7.62,15.46L484.51,398.76L484.51,398.76z"/>
	<path class="st1" d="M514.84,391.52h-8.29v5.57h9.24v1.68h-11.98v-15.46h11.51v1.68h-8.76v4.89h8.29V391.52z"/>
	<path class="st1" d="M538.73,383.31h2.75v13.78h9.11v1.68h-11.85V383.31z"/>
	<path class="st1" d="M576.97,390.88c0,5.32-4.46,8.14-9.9,8.14c-5.62,0-9.58-3.17-9.58-7.84c0-4.91,4.21-8.12,9.9-8.12
		C573.21,383.06,576.97,386.3,576.97,390.88z M560.44,391.13c0,3.31,2.47,6.26,6.8,6.26c4.37,0,6.83-2.91,6.83-6.42
		c0-3.07-2.22-6.28-6.8-6.28C562.72,384.68,560.44,387.74,560.44,391.13z"/>
	<path class="st1" d="M591.56,398.76l-6.96-15.46h2.97l3.32,7.62c0.92,2.09,1.7,3.97,2.28,5.78h0.07c0.61-1.79,1.49-3.73,2.43-5.75
		l3.6-7.63h2.94l-7.62,15.46L591.56,398.76L591.56,398.76z"/>
	<path class="st1" d="M621.91,391.52h-8.29v5.57h9.24v1.68h-11.98v-15.46h11.51v1.68h-8.76v4.89h8.29V391.52z"/>
	<path class="st1" d="M656.82,391.52h-8.29v5.57h9.24v1.68h-11.98v-15.46h11.51v1.68h-8.76v4.89h8.29V391.52z"/>
	<path class="st1" d="M679.35,398.76l-2.72-3.42c-1.11-1.3-1.81-2.15-2.47-3.04h-0.07c-0.6,0.89-1.2,1.72-2.31,3.07l-2.56,3.4h-3.17
		l6.52-7.82l-6.26-7.63h3.19l2.81,3.62c0.79,1.01,1.39,1.79,1.96,2.62h0.09c0.6-0.91,1.14-1.63,1.93-2.62l2.9-3.62h3.17l-6.48,7.52
		l6.64,7.93L679.35,398.76L679.35,398.76z"/>
	<path class="st1" d="M692.07,383.49c1.33-0.16,3.07-0.3,5.28-0.3c2.72,0,4.71,0.46,5.98,1.28c1.17,0.74,1.86,1.86,1.86,3.23
		c0,1.4-0.57,2.5-1.65,3.31c-1.45,1.13-3.83,1.69-6.51,1.69c-0.82,0-1.58-0.03-2.22-0.14v6.19h-2.76L692.07,383.49L692.07,383.49z
		 M694.82,390.94c0.6,0.11,1.36,0.16,2.27,0.16c3.32,0,5.34-1.17,5.34-3.31c0-2.04-1.99-3.03-5.03-3.03c-1.2,0-2.12,0.07-2.59,0.16
		L694.82,390.94L694.82,390.94z"/>
	<path class="st1" d="M715.23,383.31h2.76v13.78h9.11v1.68h-11.86L715.23,383.31L715.23,383.31z"/>
	<path class="st1" d="M753.47,390.88c0,5.32-4.46,8.14-9.9,8.14c-5.62,0-9.58-3.17-9.58-7.84c0-4.91,4.21-8.12,9.9-8.12
		C749.71,383.06,753.47,386.3,753.47,390.88z M736.93,391.13c0,3.31,2.47,6.26,6.8,6.26c4.37,0,6.82-2.91,6.82-6.42
		c0-3.07-2.22-6.28-6.8-6.28C739.2,384.68,736.93,387.74,736.93,391.13z"/>
	<path class="st1" d="M763.37,383.52c1.4-0.2,3.38-0.32,5.28-0.32c2.94,0,4.84,0.39,6.16,1.26c1.08,0.69,1.68,1.74,1.68,2.93
		c0,2.04-1.77,3.4-4.01,3.95v0.07c1.65,0.41,2.63,1.51,3.13,3.12c0.7,2.15,1.2,3.65,1.65,4.25h-2.85c-0.35-0.44-0.82-1.77-1.42-3.69
		c-0.63-2.13-1.77-2.93-4.26-3.01h-2.59v6.69h-2.76L763.37,383.52L763.37,383.52z M766.13,390.56h2.81c2.94,0,4.8-1.17,4.8-2.93
		c0-1.99-1.99-2.87-4.9-2.89c-1.33,0-2.27,0.09-2.72,0.19V390.56z"/>
	<path class="st1" d="M797.77,391.52h-8.29v5.57h9.24v1.68h-11.98v-15.46h11.5v1.68h-8.76v4.89h8.29L797.77,391.52L797.77,391.52z"
		/>
	<rect x="415.56" y="308.79" class="st1" width="2.45" height="99.8"/>
</g>
</svg>
